<?xml version="1.0" ?><svg style="enable-background:new 0 0 48 48;" version="1.1" viewBox="0 0 48 48" xml:space="preserve" xmlns="http://www.w3.org/2000/svg" xmlns:xlink="http://www.w3.org/1999/xlink"><style type="text/css">
	.st0{display:none;}
	.st1{fill:none;stroke:#303030;stroke-width:0.7;stroke-linecap:round;stroke-linejoin:round;stroke-miterlimit:10;}
	.st2{fill:#303030;}
</style><g class="st0" id="Padding__x26__Artboard"/><g id="Icons"><g><path class="st1" d="M33.11272,38.09375H14.88728c-1.90166,0-3.44327-1.5416-3.44327-3.44326V16.42504    c0-1.90166,1.5416-3.44327,3.44327-3.44327h18.22544c1.90166,0,3.44327,1.5416,3.44327,3.44327v18.22544    C36.55599,36.55215,35.01439,38.09375,33.11272,38.09375z"/><path class="st1" d="M14.88721,36.59367c-1.07178,0-1.94336-0.87158-1.94336-1.94287V16.42521    c0-1.07178,0.87158-1.94336,1.94336-1.94336h18.22559c1.07178,0,1.94336,0.87158,1.94336,1.94336V34.6508    c0,1.07129-0.87158,1.94287-1.94336,1.94287H14.88721z"/><g><path class="st1" d="M18.581,12.98177h-2.69246v-2.32573c0-0.4141,0.3357-0.7498,0.7498-0.7498h1.19286     c0.4141,0,0.7498,0.3357,0.7498,0.7498V12.98177z"/><path class="st1" d="M32.11146,12.98177H29.419v-2.32573c0-0.4141,0.3357-0.7498,0.7498-0.7498h1.19286     c0.4141,0,0.7498,0.3357,0.7498,0.7498V12.98177z"/></g><g><circle class="st2" cx="17.80101" cy="20.24692" r="1.10937"/><circle class="st2" cx="24" cy="20.24692" r="1.10937"/><circle class="st2" cx="30.19899" cy="20.24692" r="1.10937"/><circle class="st2" cx="17.80101" cy="25.53776" r="1.10937"/><circle class="st2" cx="24" cy="25.53776" r="1.10937"/><circle class="st2" cx="30.19899" cy="25.53776" r="1.10937"/><circle class="st2" cx="17.80101" cy="30.82861" r="1.10937"/><circle class="st2" cx="24" cy="30.82861" r="1.10937"/></g></g></g></svg>